<svg width="729" height="342" viewBox="0 0 729 342" fill="none" xmlns="http://www.w3.org/2000/svg">
<path d="M132.681 306H107.965L145.625 196.909H175.348L212.955 306H188.239L160.913 221.838H160.061L132.681 306ZM131.137 263.12H189.517V281.124H131.137V263.12ZM258.711 338.386C251.36 338.386 245.057 337.374 239.801 335.35C234.581 333.362 230.426 330.645 227.337 327.2C224.247 323.756 222.241 319.885 221.318 315.588L242.305 312.765C242.944 314.398 243.956 315.925 245.341 317.346C246.726 318.766 248.555 319.903 250.828 320.755C253.136 321.643 255.941 322.087 259.244 322.087C264.18 322.087 268.246 320.879 271.442 318.464C274.673 316.085 276.289 312.09 276.289 306.479V291.511H275.33C274.336 293.784 272.845 295.933 270.856 297.957C268.867 299.981 266.311 301.632 263.186 302.911C260.061 304.189 256.332 304.828 251.999 304.828C245.856 304.828 240.263 303.408 235.22 300.567C230.213 297.69 226.218 293.305 223.235 287.41C220.288 281.479 218.814 273.987 218.814 264.931C218.814 255.663 220.323 247.921 223.342 241.707C226.36 235.492 230.373 230.84 235.38 227.751C240.423 224.661 245.945 223.116 251.946 223.116C256.527 223.116 260.362 223.898 263.452 225.46C266.541 226.987 269.027 228.905 270.909 231.213C272.827 233.486 274.301 235.723 275.33 237.925H276.183V224.182H298.715V306.799C298.715 313.759 297.01 319.583 293.601 324.271C290.192 328.958 285.469 332.474 279.432 334.817C273.431 337.197 266.524 338.386 258.711 338.386ZM259.191 287.783C262.848 287.783 265.938 286.877 268.459 285.066C271.016 283.219 272.969 280.592 274.318 277.183C275.703 273.738 276.396 269.619 276.396 264.825C276.396 260.031 275.721 255.876 274.372 252.36C273.022 248.809 271.069 246.057 268.512 244.104C265.955 242.151 262.848 241.174 259.191 241.174C255.462 241.174 252.319 242.186 249.762 244.21C247.205 246.199 245.27 248.969 243.956 252.52C242.642 256.071 241.985 260.173 241.985 264.825C241.985 269.548 242.642 273.631 243.956 277.076C245.306 280.485 247.241 283.131 249.762 285.013C252.319 286.859 255.462 287.783 259.191 287.783ZM354.059 307.598C345.643 307.598 338.399 305.893 332.326 302.484C326.289 299.04 321.637 294.175 318.37 287.889C315.103 281.568 313.47 274.093 313.47 265.464C313.47 257.048 315.103 249.661 318.37 243.305C321.637 236.948 326.236 231.994 332.166 228.443C338.132 224.892 345.128 223.116 353.154 223.116C358.551 223.116 363.576 223.987 368.228 225.727C372.916 227.431 376.999 230.006 380.48 233.45C383.995 236.895 386.73 241.227 388.683 246.447C390.636 251.632 391.612 257.705 391.612 264.665V270.897H322.525V256.835H370.252C370.252 253.567 369.542 250.673 368.122 248.152C366.701 245.631 364.73 243.66 362.209 242.239C359.723 240.783 356.829 240.055 353.526 240.055C350.082 240.055 347.028 240.854 344.365 242.452C341.737 244.015 339.677 246.128 338.186 248.791C336.694 251.419 335.931 254.349 335.895 257.58V270.95C335.895 274.999 336.641 278.496 338.132 281.444C339.659 284.391 341.808 286.664 344.578 288.262C347.347 289.86 350.632 290.659 354.432 290.659C356.953 290.659 359.262 290.304 361.357 289.594C363.452 288.884 365.245 287.818 366.737 286.398C368.228 284.977 369.365 283.237 370.146 281.178L391.133 282.562C390.068 287.605 387.884 292.009 384.581 295.773C381.314 299.501 377.088 302.413 371.904 304.509C366.754 306.568 360.806 307.598 354.059 307.598ZM429.112 258.699V306H406.421V224.182H428.047V238.617H429.006C430.817 233.859 433.853 230.094 438.115 227.325C442.376 224.519 447.543 223.116 453.615 223.116C459.297 223.116 464.251 224.359 468.477 226.845C472.703 229.331 475.987 232.882 478.331 237.499C480.675 242.08 481.847 247.548 481.847 253.905V306H459.155V257.953C459.191 252.946 457.912 249.04 455.32 246.234C452.727 243.393 449.159 241.973 444.613 241.973C441.559 241.973 438.86 242.63 436.517 243.944C434.208 245.258 432.397 247.175 431.083 249.697C429.805 252.183 429.148 255.183 429.112 258.699ZM536.699 307.598C528.318 307.598 521.109 305.822 515.072 302.271C509.071 298.685 504.454 293.713 501.223 287.357C498.027 281 496.429 273.685 496.429 265.411C496.429 257.03 498.044 249.679 501.276 243.358C504.543 237.001 509.177 232.048 515.179 228.496C521.18 224.91 528.318 223.116 536.592 223.116C543.73 223.116 549.98 224.413 555.342 227.005C560.704 229.597 564.948 233.237 568.073 237.925C571.198 242.612 572.92 248.116 573.24 254.438H551.826C551.223 250.354 549.625 247.069 547.032 244.583C544.475 242.062 541.12 240.801 536.965 240.801C533.449 240.801 530.377 241.76 527.75 243.678C525.157 245.56 523.133 248.312 521.677 251.934C520.221 255.556 519.493 259.942 519.493 265.091C519.493 270.311 520.203 274.75 521.624 278.408C523.08 282.065 525.122 284.853 527.75 286.771C530.377 288.688 533.449 289.647 536.965 289.647C539.557 289.647 541.883 289.114 543.943 288.049C546.038 286.984 547.76 285.439 549.11 283.415C550.495 281.355 551.4 278.887 551.826 276.011H573.24C572.885 282.261 571.18 287.765 568.126 292.523C565.108 297.246 560.935 300.94 555.608 303.603C550.282 306.266 543.978 307.598 536.699 307.598ZM601.778 336.682C598.901 336.682 596.202 336.451 593.681 335.989C591.195 335.563 589.135 335.013 587.502 334.338L592.616 317.399C595.279 318.216 597.676 318.66 599.807 318.731C601.973 318.802 603.837 318.305 605.4 317.239C606.998 316.174 608.294 314.363 609.288 311.806L610.62 308.344L581.27 224.182H605.133L622.072 284.267H622.925L640.023 224.182H664.047L632.246 314.842C630.719 319.246 628.642 323.081 626.014 326.348C623.422 329.651 620.137 332.19 616.16 333.965C612.182 335.776 607.388 336.682 601.778 336.682Z" fill="white"/>
<path d="M305.167 154H266.495V44.9091H305.487C316.46 44.9091 325.906 47.093 333.825 51.4609C341.744 55.7933 347.834 62.0256 352.095 70.1577C356.392 78.2898 358.541 88.0199 358.541 99.348C358.541 110.712 356.392 120.477 352.095 128.645C347.834 136.812 341.708 143.08 333.718 147.448C325.764 151.816 316.247 154 305.167 154ZM289.56 134.238H304.208C311.026 134.238 316.762 133.031 321.414 130.616C326.101 128.165 329.617 124.384 331.96 119.27C334.34 114.121 335.529 107.48 335.529 99.348C335.529 91.2869 334.34 84.6996 331.96 79.5859C329.617 74.4723 326.119 70.7081 321.467 68.2933C316.815 65.8786 311.08 64.6712 304.262 64.6712H289.56V134.238ZM375.2 154V72.1818H397.892V154H375.2ZM386.599 61.6349C383.225 61.6349 380.331 60.5163 377.917 58.2791C375.537 56.0064 374.348 53.2898 374.348 50.1293C374.348 47.0043 375.537 44.3232 377.917 42.0859C380.331 39.8132 383.225 38.6768 386.599 38.6768C389.973 38.6768 392.849 39.8132 395.228 42.0859C397.643 44.3232 398.85 47.0043 398.85 50.1293C398.85 53.2898 397.643 56.0064 395.228 58.2791C392.849 60.5163 389.973 61.6349 386.599 61.6349ZM452.93 186.386C445.579 186.386 439.276 185.374 434.02 183.35C428.8 181.362 424.645 178.645 421.556 175.2C418.466 171.756 416.46 167.885 415.536 163.588L436.524 160.765C437.163 162.398 438.175 163.925 439.56 165.346C440.945 166.766 442.774 167.903 445.046 168.755C447.355 169.643 450.16 170.087 453.463 170.087C458.399 170.087 462.465 168.879 465.661 166.464C468.892 164.085 470.508 160.09 470.508 154.479V139.511H469.549C468.555 141.784 467.063 143.933 465.075 145.957C463.086 147.981 460.529 149.632 457.404 150.911C454.279 152.189 450.551 152.828 446.218 152.828C440.075 152.828 434.482 151.408 429.439 148.567C424.432 145.69 420.437 141.305 417.454 135.41C414.507 129.479 413.033 121.987 413.033 112.931C413.033 103.663 414.542 95.9212 417.561 89.7067C420.579 83.4922 424.592 78.8402 429.599 75.7507C434.642 72.6612 440.164 71.1165 446.165 71.1165C450.746 71.1165 454.581 71.8977 457.671 73.4602C460.76 74.9872 463.246 76.9048 465.128 79.2131C467.046 81.4858 468.519 83.723 469.549 85.9247H470.401V72.1818H492.933V154.799C492.933 161.759 491.229 167.583 487.82 172.271C484.411 176.958 479.688 180.474 473.651 182.817C467.649 185.197 460.742 186.386 452.93 186.386ZM453.409 135.783C457.067 135.783 460.156 134.877 462.678 133.066C465.235 131.219 467.188 128.592 468.537 125.183C469.922 121.738 470.615 117.619 470.615 112.825C470.615 108.031 469.94 103.876 468.59 100.36C467.241 96.8089 465.288 94.0568 462.731 92.1037C460.174 90.1506 457.067 89.174 453.409 89.174C449.681 89.174 446.538 90.1861 443.981 92.2102C441.424 94.1989 439.489 96.9687 438.175 100.52C436.861 104.071 436.204 108.173 436.204 112.825C436.204 117.548 436.861 121.631 438.175 125.076C439.524 128.485 441.46 131.131 443.981 133.013C446.538 134.859 449.681 135.783 453.409 135.783ZM510.991 154V72.1818H533.683V154H510.991ZM522.39 61.6349C519.017 61.6349 516.122 60.5163 513.708 58.2791C511.328 56.0064 510.139 53.2898 510.139 50.1293C510.139 47.0043 511.328 44.3232 513.708 42.0859C516.122 39.8132 519.017 38.6768 522.39 38.6768C525.764 38.6768 528.64 39.8132 531.019 42.0859C533.434 44.3232 534.642 47.0043 534.642 50.1293C534.642 53.2898 533.434 56.0064 531.019 58.2791C528.64 60.5163 525.764 61.6349 522.39 61.6349ZM595.379 72.1818V89.2273H546.107V72.1818H595.379ZM557.293 52.5795H579.985V128.858C579.985 130.953 580.305 132.587 580.944 133.759C581.583 134.895 582.471 135.694 583.607 136.156C584.779 136.617 586.129 136.848 587.656 136.848C588.721 136.848 589.786 136.759 590.852 136.582C591.917 136.369 592.734 136.209 593.302 136.102L596.871 152.988C595.734 153.343 594.136 153.751 592.077 154.213C590.017 154.71 587.513 155.012 584.566 155.119C579.097 155.332 574.303 154.604 570.184 152.935C566.1 151.266 562.922 148.673 560.649 145.158C558.376 141.642 557.258 137.203 557.293 131.841V52.5795ZM633.492 155.545C628.272 155.545 623.62 154.639 619.536 152.828C615.452 150.982 612.221 148.265 609.841 144.678C607.498 141.056 606.326 136.546 606.326 131.148C606.326 126.603 607.16 122.786 608.829 119.696C610.498 116.607 612.771 114.121 615.647 112.239C618.524 110.357 621.791 108.936 625.449 107.977C629.142 107.018 633.012 106.344 637.061 105.953C641.819 105.456 645.654 104.994 648.566 104.568C651.478 104.107 653.591 103.432 654.905 102.544C656.219 101.656 656.876 100.342 656.876 98.6023V98.2827C656.876 94.9091 655.811 92.299 653.68 90.4524C651.585 88.6058 648.602 87.6825 644.731 87.6825C640.647 87.6825 637.398 88.5881 634.983 90.3991C632.569 92.1747 630.971 94.4119 630.189 97.1108L609.202 95.4062C610.267 90.4347 612.363 86.1378 615.488 82.5156C618.613 78.858 622.643 76.0526 627.579 74.0994C632.551 72.1108 638.304 71.1165 644.838 71.1165C649.383 71.1165 653.733 71.6491 657.888 72.7145C662.078 73.7798 665.789 75.4311 669.021 77.6683C672.288 79.9055 674.863 82.782 676.745 86.2976C678.627 89.7777 679.568 93.9503 679.568 98.8153V154H658.048V142.654H657.409C656.095 145.211 654.337 147.466 652.135 149.419C649.934 151.337 647.288 152.846 644.199 153.947C641.109 155.012 637.54 155.545 633.492 155.545ZM639.99 139.884C643.328 139.884 646.276 139.227 648.833 137.913C651.39 136.564 653.396 134.753 654.852 132.48C656.308 130.207 657.036 127.633 657.036 124.756V116.074C656.326 116.536 655.349 116.962 654.106 117.352C652.899 117.707 651.532 118.045 650.005 118.364C648.478 118.648 646.951 118.915 645.424 119.163C643.897 119.376 642.512 119.572 641.269 119.749C638.605 120.14 636.279 120.761 634.291 121.614C632.302 122.466 630.757 123.62 629.657 125.076C628.556 126.496 628.005 128.272 628.005 130.403C628.005 133.492 629.124 135.854 631.361 137.487C633.634 139.085 636.51 139.884 639.99 139.884ZM719.864 44.9091V154H697.173V44.9091H719.864Z" fill="white"/>
<path d="M68.4802 167.487L56.6009 153.783L59.6788 152.337L67.9784 162.61L68.125 162.541L65.7113 149.504L68.5116 148.189L77.0154 158.375L77.1542 158.31L74.5441 145.355L77.622 143.909L80.5837 161.802L77.7603 163.128L69.3909 153.529L69.2674 153.587L71.3036 166.161L68.4802 167.487ZM90.9716 157.206C89.8145 157.749 88.692 157.966 87.6043 157.855C86.5166 157.745 85.5238 157.341 84.6259 156.646C83.733 155.948 82.9992 154.987 82.4243 153.763C81.8494 152.539 81.5772 151.358 81.6077 150.22C81.6433 149.08 81.9658 148.056 82.5752 147.148C83.1846 146.24 84.0679 145.515 85.225 144.971C86.3822 144.428 87.5046 144.211 88.5923 144.322C89.68 144.432 90.6714 144.839 91.5667 145.542C92.467 146.243 93.2047 147.205 93.7796 148.429C94.3545 149.653 94.6229 150.833 94.5849 151.968C94.552 153.101 94.2308 154.121 93.6214 155.029C93.012 155.937 92.1287 156.662 90.9716 157.206ZM89.9363 154.961C90.5637 154.667 91.0073 154.248 91.2672 153.705C91.5246 153.158 91.6185 152.542 91.5489 151.859C91.4844 151.174 91.283 150.471 90.9448 149.751C90.6043 149.026 90.1908 148.42 89.7046 147.933C89.2211 147.438 88.6864 147.115 88.1004 146.963C87.5145 146.812 86.9078 146.883 86.2804 147.178C85.6375 147.48 85.1848 147.906 84.9222 148.456C84.6647 149.004 84.5695 149.623 84.6364 150.313C84.7061 150.996 84.9112 151.7 85.2518 152.425C85.59 153.145 85.9996 153.75 86.4807 154.24C86.9669 154.727 87.503 155.047 88.0889 155.198C88.6776 155.342 89.2934 155.263 89.9363 154.961ZM98.9107 153.194L93.3453 141.345L96.053 140.074L96.9806 142.048L97.104 141.99C96.9987 141.205 97.1214 140.504 97.4721 139.887C97.8254 139.263 98.3415 138.792 99.0204 138.473C99.1747 138.4 99.3506 138.327 99.5481 138.253C99.7484 138.172 99.9188 138.113 100.059 138.079L101.266 140.648C101.128 140.662 100.924 140.714 100.652 140.804C100.383 140.886 100.131 140.983 99.894 141.094C99.3848 141.333 98.979 141.659 98.6766 142.071C98.3769 142.475 98.202 142.925 98.1517 143.419C98.1015 143.914 98.1947 144.413 98.4314 144.917L101.703 151.883L98.9107 153.194ZM102.896 132.039L110.316 147.837L107.524 149.149L100.103 133.35L102.896 132.039ZM117.683 144.632C116.752 145.069 115.806 145.221 114.846 145.088C113.886 144.955 112.979 144.534 112.125 143.824C111.27 143.114 110.537 142.109 109.926 140.808C109.308 139.491 109.002 138.279 109.009 137.171C109.019 136.055 109.285 135.092 109.808 134.281C110.329 133.466 111.044 132.844 111.955 132.416C112.649 132.09 113.275 131.94 113.834 131.967C114.39 131.988 114.877 132.102 115.293 132.308C115.708 132.508 116.055 132.719 116.334 132.939L116.45 132.885L113.674 126.976L116.475 125.661L123.895 141.459L121.149 142.749L120.272 140.882L120.102 140.962C120.093 141.318 120.029 141.722 119.909 142.174C119.786 142.621 119.554 143.062 119.213 143.499C118.871 143.935 118.361 144.313 117.683 144.632ZM117.386 141.974C117.977 141.697 118.406 141.301 118.673 140.786C118.937 140.266 119.042 139.668 118.988 138.99C118.933 138.313 118.726 137.591 118.366 136.825C118.006 136.059 117.585 135.443 117.104 134.979C116.627 134.512 116.107 134.22 115.543 134.102C114.984 133.981 114.404 134.063 113.802 134.345C113.18 134.637 112.737 135.043 112.472 135.563C112.208 136.083 112.104 136.677 112.162 137.347C112.219 138.017 112.42 138.72 112.766 139.455C113.113 140.196 113.529 140.807 114.013 141.289C114.5 141.764 115.03 142.07 115.603 142.209C116.18 142.34 116.774 142.262 117.386 141.974ZM140.989 120.653L138.104 122.008C137.799 121.574 137.451 121.226 137.058 120.965C136.663 120.698 136.24 120.514 135.79 120.411C135.34 120.309 134.874 120.292 134.392 120.362C133.913 120.424 133.432 120.568 132.948 120.795C132.089 121.198 131.43 121.772 130.969 122.516C130.506 123.254 130.281 124.125 130.295 125.13C130.306 126.129 130.591 127.222 131.149 128.41C131.716 129.619 132.382 130.549 133.147 131.201C133.914 131.845 134.725 132.223 135.582 132.336C136.441 132.441 137.297 132.293 138.151 131.892C138.624 131.669 139.037 131.4 139.391 131.083C139.747 130.759 140.032 130.396 140.245 129.995C140.463 129.591 140.601 129.156 140.658 128.69C140.72 128.221 140.687 127.735 140.557 127.231L143.449 125.891C143.694 126.693 143.791 127.507 143.74 128.334C143.694 129.159 143.502 129.959 143.162 130.734C142.821 131.503 142.33 132.21 141.692 132.856C141.051 133.496 140.26 134.037 139.319 134.479C137.93 135.131 136.54 135.392 135.148 135.261C133.755 135.13 132.461 134.605 131.263 133.686C130.066 132.767 129.068 131.459 128.271 129.762C127.472 128.06 127.104 126.456 127.169 124.95C127.232 123.439 127.657 122.106 128.445 120.951C129.234 119.796 130.317 118.895 131.695 118.248C132.575 117.835 133.45 117.574 134.322 117.466C135.194 117.358 136.038 117.404 136.854 117.604C137.668 117.8 138.427 118.153 139.131 118.663C139.838 119.166 140.457 119.829 140.989 120.653ZM143.775 112.838L151.196 128.637L148.403 129.948L140.982 114.15L143.775 112.838ZM157.589 125.925C156.838 126.278 156.099 126.462 155.372 126.477C154.647 126.485 153.986 126.306 153.387 125.94C152.794 125.573 152.315 125 151.95 124.224C151.636 123.555 151.5 122.944 151.541 122.391C151.583 121.838 151.755 121.33 152.059 120.868C152.363 120.405 152.751 119.981 153.223 119.596C153.697 119.204 154.208 118.841 154.755 118.509C155.416 118.111 155.949 117.782 156.354 117.523C156.757 117.258 157.027 117.018 157.165 116.803C157.305 116.58 157.312 116.335 157.187 116.068L157.165 116.021C156.892 115.44 156.508 115.071 156.014 114.914C155.52 114.757 154.949 114.831 154.301 115.135C153.617 115.456 153.144 115.86 152.883 116.347C152.627 116.831 152.525 117.309 152.577 117.781L149.796 118.635C149.663 117.818 149.72 117.057 149.966 116.352C150.21 115.641 150.617 115.004 151.187 114.441C151.755 113.873 152.454 113.394 153.281 113.005C153.852 112.737 154.452 112.537 155.081 112.405C155.709 112.273 156.33 112.252 156.943 112.34C157.553 112.424 158.123 112.662 158.652 113.053C159.187 113.443 159.639 114.031 160.008 114.818L163.733 122.748L161.048 124.009L160.284 122.381L160.191 122.425C160.176 122.833 160.082 123.254 159.909 123.687C159.738 124.113 159.463 124.521 159.082 124.914C158.704 125.298 158.206 125.636 157.589 125.925ZM157.35 123.533C157.911 123.27 158.345 122.931 158.653 122.516C158.958 122.097 159.134 121.65 159.181 121.176C159.234 120.699 159.157 120.242 158.952 119.805L158.296 118.409C158.242 118.522 158.125 118.659 157.943 118.82C157.766 118.978 157.56 119.141 157.325 119.308C157.089 119.475 156.854 119.636 156.619 119.79C156.384 119.944 156.18 120.078 156.007 120.191C155.617 120.443 155.287 120.71 155.018 120.994C154.75 121.277 154.575 121.579 154.493 121.9C154.409 122.215 154.451 122.553 154.621 122.913C154.862 123.427 155.232 123.727 155.731 123.813C156.229 123.899 156.769 123.806 157.35 123.533ZM171.812 108.313L169.396 109.787C169.204 109.563 168.964 109.381 168.678 109.239C168.397 109.095 168.074 109.023 167.711 109.025C167.347 109.026 166.95 109.128 166.518 109.331C165.936 109.604 165.507 109.959 165.229 110.397C164.957 110.833 164.918 111.25 165.111 111.649C165.268 111.996 165.525 112.217 165.884 112.312C166.248 112.405 166.763 112.379 167.43 112.236L169.654 111.718C170.889 111.433 171.902 111.425 172.693 111.694C173.49 111.96 174.09 112.516 174.494 113.362C174.839 114.11 174.93 114.871 174.766 115.645C174.605 116.411 174.218 117.132 173.607 117.809C172.996 118.485 172.196 119.055 171.209 119.519C169.758 120.2 168.449 120.445 167.279 120.254C166.107 120.057 165.18 119.454 164.498 118.443L167.098 116.902C167.473 117.379 167.925 117.659 168.454 117.743C168.983 117.827 169.569 117.719 170.212 117.417C170.875 117.105 171.344 116.719 171.617 116.258C171.895 115.794 171.94 115.362 171.751 114.961C171.592 114.622 171.329 114.403 170.963 114.305C170.602 114.205 170.121 114.223 169.521 114.361L167.3 114.886C166.052 115.183 165.024 115.18 164.216 114.875C163.405 114.565 162.799 113.977 162.399 113.111C162.051 112.383 161.951 111.658 162.101 110.934C162.254 110.204 162.621 109.522 163.204 108.891C163.789 108.252 164.554 107.711 165.501 107.266C166.889 106.614 168.121 106.396 169.196 106.613C170.276 106.828 171.148 107.395 171.812 108.313ZM183.734 102.713L181.319 104.187C181.126 103.964 180.886 103.781 180.6 103.639C180.319 103.495 179.997 103.424 179.633 103.425C179.27 103.426 178.872 103.528 178.44 103.731C177.859 104.004 177.429 104.36 177.152 104.798C176.879 105.233 176.84 105.65 177.033 106.049C177.19 106.396 177.448 106.617 177.806 106.712C178.17 106.805 178.685 106.78 179.352 106.636L181.576 106.119C182.811 105.834 183.824 105.825 184.616 106.094C185.412 106.36 186.012 106.916 186.416 107.762C186.761 108.51 186.852 109.271 186.688 110.045C186.527 110.811 186.141 111.533 185.529 112.209C184.918 112.885 184.118 113.455 183.131 113.919C181.681 114.6 180.371 114.845 179.201 114.654C178.029 114.457 177.102 113.854 176.42 112.843L179.02 111.302C179.395 111.779 179.847 112.059 180.376 112.144C180.905 112.228 181.491 112.119 182.134 111.817C182.798 111.505 183.266 111.119 183.539 110.658C183.817 110.195 183.862 109.762 183.674 109.361C183.514 109.022 183.251 108.803 182.885 108.705C182.524 108.605 182.043 108.623 181.443 108.761L179.222 109.286C177.975 109.583 176.947 109.58 176.138 109.275C175.327 108.966 174.722 108.378 174.321 107.511C173.973 106.783 173.874 106.058 174.024 105.335C174.176 104.604 174.544 103.923 175.126 103.291C175.711 102.652 176.477 102.111 177.423 101.666C178.812 101.014 180.043 100.797 181.118 101.014C182.198 101.228 183.07 101.795 183.734 102.713Z" fill="white"/>
<path d="M215.375 113.965C210.44 99.9533 203.822 80.5429 195.363 68.6053C155.008 86.4268 114.907 104.493 75.3675 124.13C60.3635 131.581 45.3467 142.069 29.4596 147.425C35.6392 159.118 41.2654 171.051 47.3411 182.771C49.8293 187.57 54.0285 191.975 55.8008 197.107C100.343 175.775 143.163 150.682 188.577 131.126C197.282 127.378 205.337 122.01 214.39 119.009C190.888 127.714 168.557 140.232 146.038 151.158C130.982 158.463 114.76 163.292 99.613 170.542C85.2911 177.398 72.2784 187.002 57.8598 193.545C46.3224 177.971 33.5921 162.583 23.1908 146.205C32.2346 141.723 40.7611 136.171 49.8442 131.813C98.1949 108.617 146.986 86.5216 196.386 65.7139C203.545 81.1719 206.924 97.7506 213.155 113.453C204.409 98.1966 200.188 80.788 191.85 65.4007C185.232 66.8246 178.698 71.015 172.57 73.7671C156.423 81.0191 140.417 88.1435 124.627 96.156C104.767 106.233 85.1501 116.574 65.4298 126.939C51.9131 134.044 35.9806 140.135 23.9339 149.784C33.2321 165.921 42.7964 181.939 52.278 197.952" stroke="white" stroke-miterlimit="1.5" stroke-linecap="round" stroke-linejoin="round"/>
<path d="M184.983 46.5518C185.413 40.3631 186.023 34.2207 186.713 28.0576" stroke="white" stroke-width="2" stroke-miterlimit="1.5" stroke-linecap="round" stroke-linejoin="round"/>
<path d="M197.56 52.2201C200.362 45.7738 204.199 39.9004 207.619 33.7886" stroke="white" stroke-width="2" stroke-miterlimit="1.5" stroke-linecap="round" stroke-linejoin="round"/>
<path d="M207.266 61.6055C211.898 57.9633 217.054 54.722 222.639 52.8302" stroke="white" stroke-width="2" stroke-miterlimit="1.5" stroke-linecap="round" stroke-linejoin="round"/>
</svg>
